<?xml version="1.0" encoding="utf-8"?>
<!-- Generator: Adobe Illustrator 15.0.0, SVG Export Plug-In . SVG Version: 6.00 Build 0)  -->
<svg version="1.2" baseProfile="tiny" id="Layer_1" xmlns="http://www.w3.org/2000/svg" xmlns:xlink="http://www.w3.org/1999/xlink"
	 x="0px" y="0px" width="637px" height="75px" viewBox="0 0 637 75" xml:space="preserve">
<linearGradient id="SVGID_1_" gradientUnits="userSpaceOnUse" x1="3.5449" y1="19.9551" x2="73.0269" y2="19.9551">
	<stop  offset="0" style="stop-color:#EC407A"/>
	<stop  offset="0.166" style="stop-color:#EC447F"/>
	<stop  offset="0.3617" style="stop-color:#ED518D"/>
	<stop  offset="0.5725" style="stop-color:#ED67A5"/>
	<stop  offset="0.7923" style="stop-color:#EE85C6"/>
	<stop  offset="1" style="stop-color:#EFA7EC"/>
</linearGradient>
<polygon fill="url(#SVGID_1_)" points="73.027,14.829 3.545,22.198 33.248,25.082 69.583,21.229 "/>
<linearGradient id="SVGID_2_" gradientUnits="userSpaceOnUse" x1="3.5449" y1="46.9277" x2="73.0268" y2="46.9277">
	<stop  offset="0" style="stop-color:#EC407A"/>
	<stop  offset="0.166" style="stop-color:#EC447F"/>
	<stop  offset="0.3617" style="stop-color:#ED518D"/>
	<stop  offset="0.5725" style="stop-color:#ED67A5"/>
	<stop  offset="0.7923" style="stop-color:#EE85C6"/>
	<stop  offset="1" style="stop-color:#EFA7EC"/>
</linearGradient>
<polygon fill="url(#SVGID_2_)" points="51.971,55.206 60.618,39.138 55.589,38.65 "/>
<linearGradient id="SVGID_3_" gradientUnits="userSpaceOnUse" x1="1.8867" y1="50.2344" x2="83.1737" y2="50.2344">
	<stop  offset="0" style="stop-color:#1976D2"/>
	<stop  offset="0.2114" style="stop-color:#197AD3"/>
	<stop  offset="0.4086" style="stop-color:#1A85D7"/>
	<stop  offset="0.6002" style="stop-color:#1C98DE"/>
	<stop  offset="0.7884" style="stop-color:#1FB2E8"/>
	<stop  offset="0.9725" style="stop-color:#22D4F4"/>
	<stop  offset="1" style="stop-color:#23DAF6"/>
</linearGradient>
<polygon fill="url(#SVGID_3_)" points="69.633,40.014 64.045,39.472 60.024,57.868 59.341,60.996 70.582,40.105 "/>
<linearGradient id="SVGID_4_" gradientUnits="userSpaceOnUse" x1="-41.0796" y1="26.3335" x2="103.5408" y2="26.3335">
	<stop  offset="0" style="stop-color:#1976D2"/>
	<stop  offset="0.2114" style="stop-color:#197AD3"/>
	<stop  offset="0.4086" style="stop-color:#1A85D7"/>
	<stop  offset="0.6002" style="stop-color:#1C98DE"/>
	<stop  offset="0.7884" style="stop-color:#1FB2E8"/>
	<stop  offset="0.9725" style="stop-color:#22D4F4"/>
	<stop  offset="1" style="stop-color:#23DAF6"/>
</linearGradient>
<polygon fill="url(#SVGID_4_)" points="79.337,21.356 69.276,22.423 35.894,25.963 12.807,28.412 10.914,28.613 39.862,31.423 
	41.754,31.223 57.439,29.559 65.92,28.66 75.98,27.593 77.04,27.48 80.396,21.244 "/>
<linearGradient id="SVGID_5_" gradientUnits="userSpaceOnUse" x1="-286.5986" y1="47.2227" x2="263.9943" y2="47.2227">
	<stop  offset="0.6061" style="stop-color:#39B54A"/>
	<stop  offset="0.6788" style="stop-color:#58DA3F"/>
</linearGradient>
<polygon fill="url(#SVGID_5_)" points="66.71,66.786 87.765,27.659 86.746,27.767 76.645,28.838 75.586,28.95 65.526,30.018 
	57.285,30.891 45.156,32.178 43.263,32.378 21.06,34.733 18.283,35.027 55.589,38.65 60.618,39.138 63.209,39.39 64.045,39.472 
	69.633,40.014 70.582,40.105 71.754,40.22 72.5,40.292 67.367,63.778 "/>
<g>
	<path fill="#90A4AE" d="M142.038,55.058v2.392h-24.596V20.53h24.128v2.392h-21.476V37.43h18.772v2.287h-18.772v15.341H142.038z"/>
	<path fill="#90A4AE" d="M170.326,26.666c-2.392-2.669-5.772-4.004-10.14-4.004c-3.606,0-6.232,0.685-7.878,2.054
		c-1.647,1.37-2.47,3.216-2.47,5.538c0,1.179,0.208,2.167,0.624,2.963c0.416,0.798,1.066,1.466,1.95,2.002
		c0.884,0.538,2.01,1.006,3.38,1.404c1.369,0.399,2.99,0.789,4.862,1.17c2.01,0.416,3.813,0.875,5.408,1.377
		c1.594,0.503,2.955,1.136,4.082,1.898c1.126,0.763,1.993,1.699,2.6,2.808c0.606,1.11,0.91,2.479,0.91,4.108
		c0,1.63-0.321,3.051-0.962,4.264c-0.642,1.214-1.543,2.229-2.704,3.042c-1.162,0.815-2.548,1.431-4.16,1.847
		c-1.612,0.415-3.406,0.623-5.382,0.623c-5.755,0-10.626-1.837-14.612-5.512l1.404-2.132c1.56,1.63,3.466,2.921,5.72,3.874
		c2.253,0.954,4.784,1.43,7.592,1.43c3.224,0,5.746-0.589,7.566-1.768c1.82-1.179,2.73-2.964,2.73-5.356
		c0-1.213-0.234-2.244-0.702-3.094c-0.468-0.849-1.188-1.586-2.158-2.21c-0.971-0.624-2.176-1.161-3.614-1.612
		c-1.439-0.45-3.129-0.884-5.07-1.3c-1.976-0.416-3.718-0.857-5.226-1.326c-1.508-0.468-2.782-1.056-3.822-1.767
		c-1.04-0.71-1.82-1.568-2.34-2.574c-0.52-1.005-0.78-2.27-0.78-3.796c0-1.664,0.32-3.137,0.962-4.42
		c0.641-1.282,1.534-2.366,2.678-3.25c1.144-0.884,2.513-1.551,4.108-2.002c1.594-0.45,3.362-0.676,5.304-0.676
		c2.392,0,4.524,0.356,6.396,1.066c1.872,0.711,3.57,1.794,5.096,3.25L170.326,26.666z"/>
	<path fill="#90A4AE" d="M180.519,57.449V20.53h15.392c1.561,0,2.998,0.33,4.316,0.988c1.316,0.659,2.443,1.534,3.38,2.626
		c0.936,1.092,1.672,2.323,2.21,3.692c0.537,1.37,0.806,2.748,0.806,4.134c0,1.352-0.208,2.661-0.624,3.926s-1.006,2.4-1.768,3.405
		c-0.763,1.006-1.682,1.838-2.756,2.496c-1.075,0.659-2.254,1.093-3.536,1.301l9.204,14.352h-3.068l-8.944-13.936h-11.96v13.936
		H180.519z M183.17,41.069h12.948c1.179,0,2.253-0.26,3.225-0.78c0.97-0.52,1.802-1.204,2.495-2.054
		c0.693-0.849,1.223-1.82,1.587-2.912c0.363-1.092,0.546-2.21,0.546-3.354c0-1.178-0.217-2.314-0.65-3.406
		c-0.434-1.092-1.022-2.054-1.768-2.886c-0.746-0.832-1.612-1.499-2.601-2.002c-0.987-0.502-2.054-0.754-3.198-0.754H183.17V41.069z
		"/>
	<path fill="#90A4AE" d="M225.29,57.969c-1.907,0-3.675-0.372-5.304-1.117c-1.63-0.745-3.042-1.769-4.238-3.068
		s-2.132-2.799-2.808-4.498c-0.676-1.698-1.015-3.518-1.015-5.46c0-1.906,0.339-3.7,1.015-5.382
		c0.676-1.681,1.603-3.154,2.782-4.419c1.178-1.266,2.582-2.262,4.212-2.99c1.629-0.728,3.38-1.092,5.252-1.092
		c1.906,0,3.666,0.373,5.277,1.118c1.612,0.746,3.008,1.751,4.187,3.016c1.178,1.266,2.105,2.739,2.782,4.419
		c0.676,1.682,1.014,3.458,1.014,5.33c0,0.174-0.009,0.39-0.026,0.65c-0.018,0.26-0.025,0.425-0.025,0.493H214.63
		c0.104,1.561,0.469,3.009,1.093,4.343c0.623,1.335,1.412,2.487,2.365,3.458s2.055,1.733,3.303,2.288s2.582,0.832,4.004,0.832
		c0.936,0,1.862-0.131,2.781-0.391s1.769-0.615,2.549-1.065c0.779-0.45,1.473-0.996,2.079-1.639
		c0.606-0.641,1.084-1.343,1.431-2.105l2.288,0.624c-0.416,0.971-0.997,1.863-1.742,2.678c-0.746,0.815-1.612,1.517-2.6,2.106
		c-0.988,0.59-2.072,1.049-3.25,1.378C227.751,57.805,226.538,57.969,225.29,57.969z M235.898,42.89
		c-0.104-1.595-0.46-3.051-1.066-4.368c-0.606-1.317-1.387-2.452-2.34-3.406c-0.954-0.953-2.054-1.698-3.302-2.236
		c-1.248-0.537-2.583-0.806-4.004-0.806c-1.422,0-2.756,0.269-4.004,0.806c-1.248,0.538-2.35,1.283-3.303,2.236
		c-0.953,0.954-1.716,2.098-2.288,3.431c-0.571,1.335-0.909,2.782-1.014,4.343H235.898z"/>
	<path fill="#90A4AE" d="M244.998,57.449V20.53h12.272c2.912,0,5.468,0.486,7.67,1.456c2.201,0.971,4.03,2.288,5.486,3.952
		c1.456,1.664,2.548,3.614,3.275,5.85c0.729,2.236,1.092,4.62,1.092,7.15c0,2.808-0.407,5.348-1.222,7.618s-1.984,4.212-3.51,5.823
		c-1.526,1.612-3.372,2.86-5.538,3.744c-2.167,0.884-4.585,1.326-7.254,1.326H244.998z M272.143,38.938
		c0-2.322-0.33-4.462-0.988-6.422c-0.659-1.958-1.621-3.648-2.886-5.07c-1.266-1.421-2.817-2.53-4.654-3.328
		c-1.838-0.797-3.952-1.196-6.344-1.196h-9.62v32.136h9.62c2.426,0,4.567-0.407,6.422-1.223c1.854-0.813,3.406-1.95,4.654-3.405
		c1.248-1.456,2.191-3.163,2.834-5.122C271.821,43.349,272.143,41.226,272.143,38.938z"/>
	<path fill="#90A4AE" d="M277.081,57.449l15.704-36.919h2.185l15.704,36.919h-2.86l-5.148-12.168h-17.628l-5.147,12.168H277.081z
		 M293.878,23.754l-8.217,19.344h16.276L293.878,23.754z"/>
</g>
<g>
	<path fill="#546E7A" d="M352.627,31.4v1.178h-9.063v-13.49h8.892v1.179h-7.581v4.863h6.611v1.121h-6.611V31.4H352.627z"/>
	<path fill="#546E7A" d="M357.472,32.769c-1.038,0-1.823-0.358-2.356-1.074c-0.531-0.715-0.797-1.782-0.797-3.201v-5.814h1.291
		v5.586c0,2.242,0.767,3.363,2.299,3.363c0.381,0,0.754-0.063,1.121-0.189c0.367-0.127,0.707-0.311,1.018-0.552
		c0.31-0.24,0.588-0.525,0.836-0.854c0.246-0.329,0.446-0.703,0.598-1.121v-6.232h1.293v8.228c0,0.354,0.158,0.532,0.475,0.532v1.14
		c-0.254,0.038-0.432,0.057-0.532,0.057c-0.292,0-0.542-0.088-0.751-0.266s-0.313-0.399-0.313-0.665v-1.368
		c-0.443,0.773-1.033,1.371-1.768,1.796S358.346,32.769,357.472,32.769z"/>
	<path fill="#546E7A" d="M370.411,23.819c-0.874,0.025-1.634,0.266-2.28,0.722s-1.102,1.083-1.367,1.881v6.156h-1.293v-9.899h1.217
		v2.375c0.342-0.696,0.791-1.275,1.349-1.738c0.558-0.462,1.159-0.693,1.805-0.693c0.114,0,0.222,0,0.323,0s0.184,0.007,0.247,0.02
		V23.819z"/>
	<path fill="#546E7A" d="M375.731,32.769c-0.722,0-1.384-0.137-1.985-0.409s-1.121-0.643-1.559-1.111
		c-0.437-0.469-0.775-1.013-1.016-1.634c-0.241-0.62-0.361-1.273-0.361-1.957c0-0.696,0.123-1.355,0.37-1.977
		c0.247-0.62,0.589-1.165,1.026-1.634c0.438-0.468,0.956-0.842,1.558-1.121c0.602-0.278,1.257-0.418,1.967-0.418
		c0.709,0,1.364,0.14,1.966,0.418c0.602,0.279,1.121,0.653,1.559,1.121c0.438,0.469,0.779,1.014,1.025,1.634
		c0.248,0.621,0.371,1.28,0.371,1.977c0,0.684-0.123,1.337-0.371,1.957c-0.246,0.621-0.588,1.165-1.025,1.634
		s-0.957,0.839-1.559,1.111S376.44,32.769,375.731,32.769z M372.141,27.676c0,0.558,0.092,1.074,0.275,1.549s0.438,0.893,0.76,1.254
		c0.323,0.361,0.703,0.644,1.141,0.846c0.437,0.203,0.902,0.304,1.396,0.304s0.959-0.104,1.396-0.313
		c0.437-0.209,0.819-0.494,1.148-0.854c0.33-0.361,0.59-0.782,0.779-1.264c0.19-0.481,0.285-1.001,0.285-1.559
		c0-0.544-0.095-1.061-0.285-1.548c-0.189-0.487-0.449-0.912-0.779-1.273c-0.329-0.36-0.709-0.646-1.14-0.854
		s-0.894-0.313-1.387-0.313c-0.494,0-0.96,0.104-1.396,0.313s-0.817,0.497-1.14,0.864c-0.323,0.367-0.58,0.795-0.77,1.282
		C372.235,26.597,372.141,27.119,372.141,27.676z"/>
	<path fill="#546E7A" d="M387.605,32.769c-0.836,0-1.576-0.212-2.223-0.637s-1.166-0.96-1.558-1.605v6.099h-1.292V22.679h1.158
		v1.919c0.406-0.62,0.932-1.123,1.578-1.51c0.646-0.387,1.349-0.58,2.108-0.58c0.685,0,1.313,0.143,1.891,0.428
		c0.576,0.285,1.073,0.665,1.491,1.14c0.418,0.476,0.744,1.023,0.979,1.644c0.234,0.621,0.352,1.261,0.352,1.919
		c0,0.697-0.107,1.356-0.322,1.977c-0.217,0.621-0.523,1.165-0.922,1.634c-0.399,0.469-0.874,0.839-1.426,1.111
		C388.869,32.632,388.265,32.769,387.605,32.769z M387.245,31.628c0.532,0,1.013-0.114,1.444-0.342
		c0.43-0.228,0.801-0.528,1.111-0.902s0.547-0.798,0.713-1.273c0.164-0.475,0.246-0.966,0.246-1.473c0-0.531-0.095-1.038-0.285-1.52
		c-0.189-0.481-0.449-0.905-0.779-1.273c-0.328-0.367-0.719-0.658-1.168-0.874c-0.449-0.215-0.934-0.322-1.453-0.322
		c-0.33,0-0.672,0.066-1.026,0.199s-0.69,0.311-1.007,0.532s-0.586,0.481-0.808,0.778c-0.222,0.298-0.358,0.611-0.408,0.941v3.039
		c0.151,0.355,0.345,0.685,0.579,0.988s0.5,0.567,0.799,0.789c0.297,0.222,0.619,0.396,0.969,0.522
		C386.52,31.564,386.877,31.628,387.245,31.628z"/>
	<path fill="#546E7A" d="M398.321,32.769c-0.722,0-1.387-0.137-1.995-0.409c-0.607-0.272-1.134-0.646-1.576-1.121
		c-0.444-0.475-0.789-1.022-1.036-1.644c-0.247-0.62-0.37-1.285-0.37-1.994c0-0.697,0.123-1.353,0.37-1.967s0.592-1.152,1.036-1.615
		c0.442-0.462,0.965-0.829,1.567-1.102c0.602-0.272,1.263-0.409,1.985-0.409c0.722,0,1.384,0.137,1.985,0.409
		s1.118,0.643,1.549,1.111c0.43,0.469,0.766,1.007,1.007,1.615c0.24,0.607,0.36,1.254,0.36,1.938c0,0.102-0.003,0.203-0.009,0.304
		c-0.007,0.102-0.017,0.171-0.028,0.209h-8.455c0.038,0.532,0.161,1.023,0.37,1.473c0.209,0.45,0.475,0.84,0.798,1.169
		s0.696,0.586,1.121,0.77c0.424,0.184,0.877,0.275,1.358,0.275c0.329,0,0.652-0.044,0.969-0.133s0.608-0.209,0.874-0.361
		c0.267-0.152,0.504-0.339,0.713-0.561s0.37-0.466,0.484-0.731l1.121,0.304c-0.152,0.368-0.367,0.7-0.646,0.998
		c-0.279,0.298-0.603,0.558-0.97,0.778c-0.367,0.223-0.772,0.394-1.216,0.514S398.79,32.769,398.321,32.769z M401.97,27.106
		c-0.038-0.532-0.162-1.017-0.371-1.454c-0.209-0.437-0.475-0.813-0.798-1.13c-0.322-0.316-0.7-0.563-1.13-0.741
		c-0.431-0.178-0.887-0.267-1.368-0.267s-0.938,0.089-1.368,0.267s-0.808,0.425-1.131,0.741c-0.322,0.316-0.582,0.696-0.778,1.14
		c-0.197,0.443-0.313,0.925-0.352,1.444H401.97z"/>
	<path fill="#546E7A" d="M407.536,32.769c-0.507,0-0.969-0.08-1.387-0.238s-0.776-0.376-1.073-0.655
		c-0.298-0.278-0.529-0.602-0.693-0.969c-0.165-0.367-0.247-0.754-0.247-1.159c0-0.456,0.101-0.871,0.304-1.244
		c0.202-0.374,0.487-0.693,0.854-0.96c0.367-0.266,0.808-0.472,1.321-0.617c0.513-0.146,1.079-0.219,1.7-0.219
		c0.494,0,1,0.045,1.52,0.133c0.52,0.089,0.981,0.216,1.388,0.38v-0.893c0-0.874-0.251-1.567-0.751-2.08
		c-0.5-0.514-1.175-0.77-2.023-0.77c-0.532,0-1.061,0.102-1.586,0.304c-0.526,0.203-1.062,0.494-1.606,0.874l-0.455-0.855
		c0.646-0.43,1.272-0.753,1.881-0.969c0.607-0.215,1.241-0.323,1.899-0.323c1.203,0,2.16,0.349,2.869,1.045
		c0.709,0.697,1.064,1.66,1.064,2.889v4.465c0,0.354,0.151,0.532,0.456,0.532v1.14c-0.102,0.013-0.197,0.021-0.285,0.028
		c-0.089,0.007-0.165,0.01-0.229,0.01c-0.253,0-0.484-0.076-0.693-0.229c-0.209-0.151-0.326-0.38-0.352-0.684l-0.038-0.779
		c-0.431,0.583-0.997,1.036-1.7,1.358C408.971,32.606,408.259,32.769,407.536,32.769z M407.859,31.78c0.57,0,1.137-0.124,1.7-0.371
		c0.563-0.246,1.01-0.585,1.34-1.016c0.089-0.114,0.164-0.238,0.228-0.371s0.096-0.256,0.096-0.37v-1.615
		c-0.431-0.164-0.881-0.291-1.35-0.38s-0.925-0.133-1.368-0.133c-0.924,0-1.675,0.187-2.251,0.561
		c-0.576,0.373-0.864,0.89-0.864,1.548c0,0.267,0.05,0.526,0.151,0.779c0.102,0.254,0.257,0.481,0.466,0.684
		c0.209,0.203,0.466,0.368,0.77,0.494C407.08,31.717,407.441,31.78,407.859,31.78z"/>
	<path fill="#546E7A" d="M423.42,32.578h-1.292v-5.529c0-1.178-0.171-2.032-0.513-2.564c-0.343-0.532-0.874-0.798-1.597-0.798
		c-0.38,0-0.76,0.069-1.14,0.209c-0.38,0.139-0.734,0.335-1.064,0.589c-0.329,0.253-0.617,0.554-0.864,0.902
		s-0.434,0.726-0.561,1.131v6.061h-1.292v-9.899h1.179v2.242c0.202-0.354,0.452-0.681,0.75-0.979c0.298-0.297,0.63-0.554,0.998-0.77
		c0.367-0.215,0.756-0.38,1.168-0.494c0.411-0.113,0.839-0.171,1.282-0.171c0.558,0,1.023,0.102,1.396,0.305
		c0.374,0.202,0.675,0.487,0.903,0.854c0.228,0.367,0.392,0.817,0.493,1.35c0.102,0.531,0.152,1.12,0.152,1.767V32.578z"/>
	<path fill="#546E7A" d="M438.753,21.615c-0.38-0.431-0.89-0.779-1.529-1.045c-0.64-0.267-1.358-0.399-2.156-0.399
		c-1.204,0-2.078,0.226-2.622,0.675c-0.545,0.449-0.817,1.061-0.817,1.833c0,0.406,0.073,0.738,0.219,0.998s0.373,0.484,0.684,0.675
		c0.311,0.189,0.703,0.354,1.179,0.493c0.475,0.14,1.035,0.279,1.681,0.418c0.723,0.152,1.368,0.32,1.938,0.504
		s1.058,0.418,1.463,0.703s0.716,0.634,0.931,1.045c0.216,0.412,0.323,0.922,0.323,1.529c0,0.621-0.12,1.159-0.36,1.615
		c-0.241,0.456-0.577,0.836-1.008,1.14c-0.431,0.305-0.943,0.529-1.539,0.675c-0.595,0.146-1.241,0.219-1.938,0.219
		c-2.115,0-3.921-0.652-5.415-1.957l0.646-1.083c0.494,0.52,1.159,0.959,1.995,1.32s1.768,0.541,2.793,0.541
		c1.077,0,1.919-0.192,2.527-0.579c0.608-0.386,0.912-0.972,0.912-1.758c0-0.418-0.086-0.77-0.257-1.054
		c-0.171-0.285-0.428-0.532-0.77-0.741s-0.77-0.39-1.282-0.542c-0.513-0.151-1.105-0.304-1.776-0.456
		c-0.71-0.164-1.33-0.335-1.862-0.513c-0.532-0.177-0.979-0.399-1.339-0.665c-0.361-0.266-0.634-0.586-0.817-0.959
		c-0.184-0.374-0.275-0.833-0.275-1.378c0-0.62,0.117-1.175,0.352-1.662c0.234-0.488,0.563-0.894,0.987-1.217
		c0.425-0.322,0.932-0.569,1.521-0.74s1.238-0.257,1.947-0.257c0.887,0,1.682,0.136,2.385,0.408s1.34,0.655,1.909,1.149
		L438.753,21.615z"/>
	<path fill="#546E7A" d="M444.51,32.769c-0.507,0-0.969-0.08-1.387-0.238s-0.776-0.376-1.073-0.655
		c-0.298-0.278-0.529-0.602-0.693-0.969c-0.165-0.367-0.247-0.754-0.247-1.159c0-0.456,0.101-0.871,0.304-1.244
		c0.202-0.374,0.487-0.693,0.854-0.96c0.367-0.266,0.808-0.472,1.321-0.617c0.513-0.146,1.079-0.219,1.7-0.219
		c0.494,0,1,0.045,1.52,0.133c0.52,0.089,0.981,0.216,1.388,0.38v-0.893c0-0.874-0.251-1.567-0.751-2.08
		c-0.5-0.514-1.175-0.77-2.023-0.77c-0.532,0-1.061,0.102-1.586,0.304c-0.526,0.203-1.062,0.494-1.606,0.874l-0.455-0.855
		c0.646-0.43,1.272-0.753,1.881-0.969c0.607-0.215,1.241-0.323,1.899-0.323c1.203,0,2.16,0.349,2.869,1.045
		c0.709,0.697,1.064,1.66,1.064,2.889v4.465c0,0.354,0.151,0.532,0.456,0.532v1.14c-0.102,0.013-0.197,0.021-0.285,0.028
		c-0.089,0.007-0.165,0.01-0.229,0.01c-0.253,0-0.484-0.076-0.693-0.229c-0.209-0.151-0.326-0.38-0.352-0.684l-0.038-0.779
		c-0.431,0.583-0.997,1.036-1.7,1.358C445.944,32.606,445.232,32.769,444.51,32.769z M444.833,31.78c0.57,0,1.137-0.124,1.7-0.371
		c0.563-0.246,1.01-0.585,1.34-1.016c0.089-0.114,0.164-0.238,0.228-0.371s0.096-0.256,0.096-0.37v-1.615
		c-0.431-0.164-0.881-0.291-1.35-0.38s-0.925-0.133-1.368-0.133c-0.924,0-1.675,0.187-2.251,0.561
		c-0.576,0.373-0.864,0.89-0.864,1.548c0,0.267,0.05,0.526,0.151,0.779c0.102,0.254,0.257,0.481,0.466,0.684
		c0.209,0.203,0.466,0.368,0.77,0.494C444.054,31.717,444.415,31.78,444.833,31.78z"/>
	<path fill="#546E7A" d="M452.585,32.578v-7.714h-1.368v-1.026h1.368v-1.425c0-1.216,0.26-2.169,0.779-2.859
		c0.519-0.69,1.234-1.035,2.146-1.035c0.38,0,0.754,0.057,1.121,0.171c0.367,0.113,0.685,0.266,0.95,0.456l-0.399,0.931
		c-0.177-0.14-0.396-0.247-0.655-0.323s-0.516-0.114-0.77-0.114c-0.607,0-1.073,0.235-1.396,0.703
		c-0.323,0.469-0.484,1.146-0.484,2.033v1.463h2.736v1.026h-2.736v7.714H452.585z"/>
	<path fill="#546E7A" d="M462.712,32.769c-0.722,0-1.387-0.137-1.995-0.409c-0.607-0.272-1.134-0.646-1.576-1.121
		c-0.444-0.475-0.789-1.022-1.036-1.644c-0.247-0.62-0.37-1.285-0.37-1.994c0-0.697,0.123-1.353,0.37-1.967s0.592-1.152,1.036-1.615
		c0.442-0.462,0.965-0.829,1.567-1.102c0.602-0.272,1.263-0.409,1.985-0.409c0.722,0,1.384,0.137,1.985,0.409
		s1.118,0.643,1.549,1.111c0.43,0.469,0.766,1.007,1.007,1.615c0.24,0.607,0.36,1.254,0.36,1.938c0,0.102-0.003,0.203-0.009,0.304
		c-0.007,0.102-0.017,0.171-0.028,0.209h-8.455c0.038,0.532,0.161,1.023,0.37,1.473c0.209,0.45,0.475,0.84,0.798,1.169
		s0.696,0.586,1.121,0.77c0.424,0.184,0.877,0.275,1.358,0.275c0.329,0,0.652-0.044,0.969-0.133s0.608-0.209,0.874-0.361
		c0.267-0.152,0.504-0.339,0.713-0.561s0.37-0.466,0.484-0.731l1.121,0.304c-0.152,0.368-0.367,0.7-0.646,0.998
		c-0.279,0.298-0.603,0.558-0.97,0.778c-0.367,0.223-0.772,0.394-1.216,0.514S463.181,32.769,462.712,32.769z M466.36,27.106
		c-0.038-0.532-0.162-1.017-0.371-1.454c-0.209-0.437-0.475-0.813-0.798-1.13c-0.322-0.316-0.7-0.563-1.13-0.741
		c-0.431-0.178-0.887-0.267-1.368-0.267s-0.938,0.089-1.368,0.267s-0.808,0.425-1.131,0.741c-0.322,0.316-0.582,0.696-0.778,1.14
		c-0.197,0.443-0.313,0.925-0.352,1.444H466.36z"/>
	<path fill="#546E7A" d="M473.998,32.104c-0.076,0.038-0.187,0.088-0.332,0.151c-0.146,0.063-0.313,0.127-0.504,0.19
		c-0.189,0.063-0.405,0.12-0.646,0.171c-0.241,0.051-0.494,0.076-0.761,0.076c-0.278,0-0.544-0.038-0.798-0.114
		c-0.253-0.076-0.475-0.193-0.665-0.352c-0.189-0.158-0.342-0.357-0.456-0.599c-0.113-0.24-0.171-0.519-0.171-0.836v-7.087h-1.368
		v-1.026h1.368v-3.344h1.292v3.344h2.28v1.026h-2.28v6.726c0.025,0.368,0.152,0.637,0.38,0.808c0.229,0.171,0.501,0.257,0.817,0.257
		c0.367,0,0.69-0.06,0.969-0.181c0.278-0.12,0.456-0.205,0.532-0.256L473.998,32.104z"/>
	<path fill="#546E7A" d="M475.841,35.637c0.063,0.013,0.126,0.022,0.19,0.029c0.063,0.006,0.126,0.009,0.189,0.009
		c0.127,0,0.263-0.013,0.408-0.038s0.25-0.051,0.313-0.075c0.063-0.026,0.13-0.08,0.2-0.162c0.069-0.082,0.158-0.228,0.266-0.437
		s0.244-0.501,0.408-0.874c0.165-0.374,0.374-0.878,0.627-1.511l-4.313-9.899h1.349l3.667,8.702l3.382-8.702h1.235l-5.148,12.769
		c-0.19,0.469-0.447,0.816-0.77,1.045c-0.323,0.228-0.776,0.342-1.359,0.342c-0.24,0-0.455-0.019-0.646-0.057V35.637z"/>
	<path fill="#546E7A" d="M484.999,32.863c0.089,0,0.178-0.025,0.266-0.076c0.089-0.051,0.134-0.158,0.134-0.323v-1.748h1.102v1.938
		c0,0.215-0.044,0.398-0.133,0.551s-0.206,0.275-0.352,0.37c-0.146,0.096-0.308,0.165-0.484,0.209
		c-0.178,0.045-0.354,0.067-0.532,0.067V32.863z"/>
	<path fill="#546E7A" d="M493.967,32.578v-13.49h5.681c0.583,0,1.121,0.124,1.615,0.371s0.918,0.569,1.273,0.969
		c0.354,0.398,0.63,0.852,0.826,1.358s0.295,1.02,0.295,1.539c0,0.494-0.073,0.966-0.219,1.415c-0.146,0.45-0.352,0.855-0.617,1.217
		c-0.267,0.36-0.583,0.665-0.95,0.911c-0.368,0.247-0.779,0.415-1.235,0.504l3.325,5.206h-1.501l-3.192-4.978h-3.989v4.978H493.967z
		 M495.278,26.422h4.427c0.393,0,0.75-0.085,1.073-0.256c0.323-0.172,0.599-0.402,0.826-0.694c0.229-0.291,0.405-0.62,0.532-0.987
		s0.19-0.754,0.19-1.159s-0.073-0.795-0.219-1.169c-0.146-0.373-0.342-0.699-0.589-0.979c-0.247-0.278-0.539-0.5-0.874-0.665
		c-0.336-0.164-0.688-0.246-1.055-0.246h-4.313V26.422z"/>
	<path fill="#546E7A" d="M510.287,32.769c-0.722,0-1.387-0.137-1.995-0.409c-0.607-0.272-1.134-0.646-1.576-1.121
		c-0.444-0.475-0.789-1.022-1.036-1.644c-0.247-0.62-0.37-1.285-0.37-1.994c0-0.697,0.123-1.353,0.37-1.967s0.592-1.152,1.036-1.615
		c0.442-0.462,0.965-0.829,1.567-1.102c0.602-0.272,1.263-0.409,1.985-0.409c0.722,0,1.384,0.137,1.985,0.409
		s1.118,0.643,1.549,1.111c0.43,0.469,0.766,1.007,1.007,1.615c0.24,0.607,0.36,1.254,0.36,1.938c0,0.102-0.003,0.203-0.009,0.304
		c-0.007,0.102-0.017,0.171-0.028,0.209h-8.455c0.038,0.532,0.161,1.023,0.37,1.473c0.209,0.45,0.475,0.84,0.798,1.169
		s0.696,0.586,1.121,0.77c0.424,0.184,0.877,0.275,1.358,0.275c0.329,0,0.652-0.044,0.969-0.133s0.608-0.209,0.874-0.361
		c0.267-0.152,0.504-0.339,0.713-0.561s0.37-0.466,0.484-0.731l1.121,0.304c-0.152,0.368-0.367,0.7-0.646,0.998
		c-0.279,0.298-0.603,0.558-0.97,0.778c-0.367,0.223-0.772,0.394-1.216,0.514S510.756,32.769,510.287,32.769z M513.936,27.106
		c-0.038-0.532-0.162-1.017-0.371-1.454c-0.209-0.437-0.475-0.813-0.798-1.13c-0.322-0.316-0.7-0.563-1.13-0.741
		c-0.431-0.178-0.887-0.267-1.368-0.267s-0.938,0.089-1.368,0.267s-0.808,0.425-1.131,0.741c-0.322,0.316-0.582,0.696-0.778,1.14
		c-0.197,0.443-0.313,0.925-0.352,1.444H513.936z"/>
	<path fill="#546E7A" d="M516.938,18.708h1.292v11.628c0,0.368,0.101,0.655,0.304,0.864c0.202,0.209,0.487,0.313,0.854,0.313
		c0.14,0,0.305-0.019,0.494-0.057c0.19-0.038,0.367-0.088,0.532-0.152l0.229,1.046c-0.241,0.101-0.536,0.184-0.884,0.246
		c-0.349,0.063-0.649,0.096-0.902,0.096c-0.596,0-1.064-0.168-1.406-0.504c-0.342-0.335-0.513-0.808-0.513-1.415V18.708z"/>
	<path fill="#546E7A" d="M521.668,20.608v-1.9h1.292v1.9H521.668z M521.668,32.578v-9.899h1.292v9.899H521.668z"/>
	<path fill="#546E7A" d="M528.128,32.769c-0.507,0-0.969-0.08-1.387-0.238s-0.776-0.376-1.073-0.655
		c-0.298-0.278-0.529-0.602-0.693-0.969c-0.165-0.367-0.247-0.754-0.247-1.159c0-0.456,0.101-0.871,0.304-1.244
		c0.202-0.374,0.487-0.693,0.854-0.96c0.367-0.266,0.808-0.472,1.321-0.617c0.513-0.146,1.079-0.219,1.7-0.219
		c0.494,0,1,0.045,1.52,0.133c0.52,0.089,0.981,0.216,1.388,0.38v-0.893c0-0.874-0.251-1.567-0.751-2.08
		c-0.5-0.514-1.175-0.77-2.023-0.77c-0.532,0-1.061,0.102-1.586,0.304c-0.526,0.203-1.062,0.494-1.606,0.874l-0.455-0.855
		c0.646-0.43,1.272-0.753,1.881-0.969c0.607-0.215,1.241-0.323,1.899-0.323c1.203,0,2.16,0.349,2.869,1.045
		c0.709,0.697,1.064,1.66,1.064,2.889v4.465c0,0.354,0.151,0.532,0.456,0.532v1.14c-0.102,0.013-0.197,0.021-0.285,0.028
		c-0.089,0.007-0.165,0.01-0.229,0.01c-0.253,0-0.484-0.076-0.693-0.229c-0.209-0.151-0.326-0.38-0.352-0.684l-0.038-0.779
		c-0.431,0.583-0.997,1.036-1.7,1.358C529.563,32.606,528.851,32.769,528.128,32.769z M528.451,31.78c0.57,0,1.137-0.124,1.7-0.371
		c0.563-0.246,1.01-0.585,1.34-1.016c0.089-0.114,0.164-0.238,0.228-0.371s0.096-0.256,0.096-0.37v-1.615
		c-0.431-0.164-0.881-0.291-1.35-0.38s-0.925-0.133-1.368-0.133c-0.924,0-1.675,0.187-2.251,0.561
		c-0.576,0.373-0.864,0.89-0.864,1.548c0,0.267,0.05,0.526,0.151,0.779c0.102,0.254,0.257,0.481,0.466,0.684
		c0.209,0.203,0.466,0.368,0.77,0.494C527.672,31.717,528.033,31.78,528.451,31.78z"/>
	<path fill="#546E7A" d="M540.535,32.769c-0.773,0-1.489-0.196-2.147-0.59c-0.659-0.392-1.172-0.898-1.539-1.52v1.919h-1.159v-13.87
		h1.292v6.042c0.443-0.671,0.976-1.213,1.597-1.624c0.62-0.412,1.349-0.618,2.185-0.618c0.684,0,1.305,0.146,1.862,0.438
		c0.557,0.291,1.028,0.681,1.415,1.168c0.387,0.488,0.685,1.039,0.894,1.653s0.313,1.244,0.313,1.891
		c0,0.696-0.121,1.355-0.361,1.976c-0.241,0.621-0.573,1.162-0.997,1.625c-0.425,0.462-0.925,0.829-1.501,1.102
		C541.811,32.632,541.193,32.769,540.535,32.769z M540.23,31.628c0.545,0,1.042-0.11,1.492-0.332
		c0.449-0.222,0.836-0.52,1.158-0.894c0.323-0.373,0.576-0.798,0.761-1.272c0.183-0.476,0.275-0.966,0.275-1.473
		c0-0.52-0.086-1.02-0.257-1.501s-0.412-0.909-0.722-1.282c-0.311-0.374-0.682-0.672-1.111-0.894
		c-0.432-0.222-0.906-0.332-1.426-0.332c-0.393,0-0.76,0.066-1.102,0.199s-0.659,0.313-0.95,0.541
		c-0.291,0.229-0.554,0.491-0.788,0.789s-0.428,0.611-0.58,0.94v3.078c0.051,0.342,0.188,0.662,0.409,0.959
		c0.221,0.298,0.49,0.555,0.807,0.77c0.317,0.216,0.652,0.387,1.008,0.514C539.56,31.564,539.901,31.628,540.23,31.628z"/>
	<path fill="#546E7A" d="M547.165,20.608v-1.9h1.292v1.9H547.165z M547.165,32.578v-9.899h1.292v9.899H547.165z"/>
	<path fill="#546E7A" d="M551.061,18.708h1.292v11.628c0,0.368,0.101,0.655,0.304,0.864c0.202,0.209,0.487,0.313,0.854,0.313
		c0.14,0,0.305-0.019,0.494-0.057c0.19-0.038,0.367-0.088,0.532-0.152l0.229,1.046c-0.241,0.101-0.536,0.184-0.884,0.246
		c-0.349,0.063-0.649,0.096-0.902,0.096c-0.596,0-1.064-0.168-1.406-0.504c-0.342-0.335-0.513-0.808-0.513-1.415V18.708z"/>
	<path fill="#546E7A" d="M555.791,20.608v-1.9h1.292v1.9H555.791z M555.791,32.578v-9.899h1.292v9.899H555.791z"/>
	<path fill="#546E7A" d="M564.417,32.104c-0.076,0.038-0.187,0.088-0.332,0.151c-0.146,0.063-0.313,0.127-0.504,0.19
		c-0.189,0.063-0.405,0.12-0.646,0.171c-0.241,0.051-0.494,0.076-0.761,0.076c-0.278,0-0.544-0.038-0.798-0.114
		c-0.253-0.076-0.475-0.193-0.665-0.352c-0.189-0.158-0.342-0.357-0.456-0.599c-0.113-0.24-0.171-0.519-0.171-0.836v-7.087h-1.368
		v-1.026h1.368v-3.344h1.292v3.344h2.28v1.026h-2.28v6.726c0.025,0.368,0.152,0.637,0.38,0.808c0.229,0.171,0.501,0.257,0.817,0.257
		c0.367,0,0.69-0.06,0.969-0.181c0.278-0.12,0.456-0.205,0.532-0.256L564.417,32.104z"/>
	<path fill="#546E7A" d="M566.26,35.637c0.063,0.013,0.126,0.022,0.19,0.029c0.063,0.006,0.126,0.009,0.189,0.009
		c0.127,0,0.263-0.013,0.408-0.038s0.25-0.051,0.313-0.075c0.063-0.026,0.13-0.08,0.2-0.162c0.069-0.082,0.158-0.228,0.266-0.437
		s0.244-0.501,0.408-0.874c0.165-0.374,0.374-0.878,0.627-1.511l-4.313-9.899h1.349l3.667,8.702l3.382-8.702h1.235l-5.148,12.769
		c-0.19,0.469-0.447,0.816-0.77,1.045c-0.323,0.228-0.776,0.342-1.359,0.342c-0.24,0-0.455-0.019-0.646-0.057V35.637z"/>
	<path fill="#546E7A" d="M589.364,32.578l-1.559-1.634c-0.531,0.569-1.146,1.017-1.843,1.339c-0.696,0.323-1.45,0.485-2.261,0.485
		c-0.596,0-1.152-0.089-1.672-0.267c-0.52-0.177-0.973-0.428-1.358-0.75c-0.387-0.323-0.693-0.71-0.922-1.159
		c-0.228-0.449-0.342-0.947-0.342-1.491c0-0.456,0.076-0.871,0.228-1.245c0.152-0.373,0.361-0.722,0.627-1.045
		c0.267-0.323,0.57-0.624,0.912-0.902c0.343-0.278,0.703-0.551,1.083-0.817c-0.342-0.367-0.63-0.696-0.864-0.987
		c-0.234-0.292-0.425-0.561-0.57-0.808s-0.25-0.484-0.313-0.713c-0.063-0.228-0.095-0.462-0.095-0.703
		c0-0.418,0.086-0.808,0.257-1.168c0.171-0.361,0.408-0.675,0.712-0.94c0.305-0.267,0.662-0.476,1.074-0.627
		c0.411-0.152,0.857-0.229,1.339-0.229c0.443,0,0.855,0.063,1.235,0.19s0.712,0.307,0.997,0.541s0.51,0.517,0.675,0.846
		c0.164,0.329,0.247,0.69,0.247,1.083s-0.079,0.754-0.237,1.083c-0.159,0.329-0.371,0.64-0.637,0.931
		c-0.266,0.292-0.576,0.567-0.931,0.827c-0.355,0.26-0.735,0.522-1.141,0.788l3.781,3.952c0.253-0.481,0.453-1.004,0.599-1.567
		s0.219-1.156,0.219-1.776h1.102c-0.013,0.785-0.117,1.526-0.313,2.223c-0.196,0.697-0.479,1.337-0.846,1.919l2.527,2.622H589.364z
		 M583.835,31.723c0.646,0,1.245-0.136,1.796-0.408s1.035-0.648,1.453-1.13l-4.085-4.313c-0.672,0.469-1.229,0.96-1.672,1.473
		s-0.665,1.111-0.665,1.795c0,0.418,0.092,0.789,0.275,1.112c0.184,0.322,0.425,0.595,0.722,0.816
		c0.298,0.222,0.637,0.387,1.017,0.494S583.442,31.723,583.835,31.723z M581.612,21.843c0,0.152,0.021,0.305,0.066,0.456
		c0.044,0.152,0.126,0.326,0.247,0.522c0.12,0.197,0.285,0.425,0.494,0.685s0.484,0.566,0.826,0.921
		c0.367-0.253,0.706-0.49,1.017-0.712s0.576-0.443,0.798-0.665s0.393-0.449,0.513-0.685c0.12-0.233,0.181-0.484,0.181-0.75
		c0-0.494-0.184-0.899-0.551-1.216s-0.836-0.476-1.406-0.476c-0.316,0-0.607,0.051-0.874,0.152c-0.266,0.102-0.497,0.24-0.693,0.418
		s-0.349,0.38-0.456,0.608C581.666,21.33,581.612,21.577,581.612,21.843z"/>
	<path fill="#546E7A" d="M343.564,55.378v-13.49h4.56c1.077,0,2.021,0.178,2.831,0.532s1.484,0.836,2.023,1.444
		c0.538,0.607,0.94,1.32,1.207,2.137c0.266,0.817,0.398,1.688,0.398,2.613c0,1.025-0.152,1.954-0.456,2.783
		c-0.304,0.83-0.735,1.539-1.292,2.128c-0.558,0.589-1.234,1.045-2.033,1.368c-0.798,0.323-1.691,0.484-2.679,0.484H343.564z
		 M353.254,48.614c0-0.811-0.113-1.555-0.342-2.232s-0.561-1.264-0.998-1.758c-0.437-0.494-0.972-0.877-1.605-1.149
		c-0.633-0.272-1.361-0.408-2.185-0.408h-3.249V54.2h3.249c0.836,0,1.573-0.143,2.214-0.428c0.639-0.285,1.174-0.678,1.605-1.178
		c0.43-0.501,0.756-1.09,0.979-1.768C353.143,50.15,353.254,49.412,353.254,48.614z"/>
	<path fill="#546E7A" d="M359.865,55.568c-0.506,0-0.969-0.08-1.387-0.238s-0.775-0.376-1.073-0.655
		c-0.298-0.278-0.528-0.602-0.693-0.969s-0.247-0.754-0.247-1.159c0-0.456,0.102-0.871,0.305-1.244
		c0.201-0.374,0.486-0.693,0.854-0.96c0.367-0.266,0.808-0.472,1.32-0.617s1.079-0.219,1.7-0.219c0.494,0,1.001,0.045,1.521,0.133
		c0.519,0.089,0.981,0.216,1.387,0.38v-0.893c0-0.874-0.25-1.567-0.751-2.08c-0.5-0.514-1.174-0.77-2.023-0.77
		c-0.531,0-1.061,0.102-1.586,0.304c-0.525,0.203-1.061,0.494-1.605,0.874L357.13,46.6c0.646-0.43,1.272-0.753,1.881-0.969
		c0.608-0.215,1.241-0.323,1.9-0.323c1.203,0,2.159,0.349,2.868,1.045c0.71,0.697,1.064,1.66,1.064,2.889v4.465
		c0,0.354,0.152,0.532,0.456,0.532v1.14c-0.102,0.013-0.196,0.021-0.284,0.028c-0.09,0.007-0.166,0.01-0.229,0.01
		c-0.254,0-0.484-0.076-0.693-0.229c-0.209-0.151-0.326-0.38-0.352-0.684l-0.038-0.779c-0.431,0.583-0.997,1.036-1.7,1.358
		C361.301,55.406,360.588,55.568,359.865,55.568z M360.189,54.58c0.569,0,1.137-0.124,1.7-0.371c0.563-0.246,1.01-0.585,1.339-1.016
		c0.089-0.114,0.165-0.238,0.229-0.371c0.063-0.133,0.095-0.256,0.095-0.37v-1.615c-0.431-0.164-0.88-0.291-1.349-0.38
		s-0.925-0.133-1.368-0.133c-0.925,0-1.675,0.187-2.251,0.561c-0.577,0.373-0.865,0.89-0.865,1.548c0,0.267,0.051,0.526,0.152,0.779
		c0.102,0.254,0.256,0.481,0.465,0.684c0.209,0.203,0.466,0.368,0.77,0.494C359.41,54.517,359.771,54.58,360.189,54.58z"/>
	<path fill="#546E7A" d="M372.785,54.903c-0.075,0.038-0.187,0.088-0.332,0.151s-0.313,0.127-0.504,0.19
		c-0.189,0.063-0.404,0.12-0.646,0.171s-0.493,0.076-0.76,0.076c-0.278,0-0.545-0.038-0.798-0.114
		c-0.254-0.076-0.475-0.193-0.665-0.352s-0.343-0.357-0.456-0.599c-0.114-0.24-0.172-0.519-0.172-0.836v-7.087h-1.367v-1.026h1.367
		v-3.344h1.293v3.344h2.279v1.026h-2.279v6.726c0.025,0.368,0.152,0.637,0.38,0.808s0.5,0.257,0.817,0.257
		c0.367,0,0.689-0.06,0.969-0.181c0.278-0.12,0.455-0.205,0.531-0.256L372.785,54.903z"/>
	<path fill="#546E7A" d="M377.402,55.568c-0.506,0-0.969-0.08-1.387-0.238s-0.775-0.376-1.074-0.655
		c-0.297-0.278-0.528-0.602-0.693-0.969c-0.164-0.367-0.246-0.754-0.246-1.159c0-0.456,0.102-0.871,0.304-1.244
		c0.202-0.374,0.487-0.693,0.854-0.96c0.367-0.266,0.809-0.472,1.32-0.617c0.514-0.146,1.08-0.219,1.701-0.219
		c0.494,0,1,0.045,1.52,0.133c0.52,0.089,0.982,0.216,1.387,0.38v-0.893c0-0.874-0.25-1.567-0.75-2.08
		c-0.5-0.514-1.175-0.77-2.023-0.77c-0.531,0-1.061,0.102-1.586,0.304c-0.526,0.203-1.062,0.494-1.605,0.874l-0.457-0.855
		c0.646-0.43,1.273-0.753,1.881-0.969c0.609-0.215,1.242-0.323,1.9-0.323c1.203,0,2.16,0.349,2.869,1.045
		c0.709,0.697,1.064,1.66,1.064,2.889v4.465c0,0.354,0.152,0.532,0.455,0.532v1.14c-0.102,0.013-0.195,0.021-0.284,0.028
		s-0.165,0.01-0.228,0.01c-0.254,0-0.485-0.076-0.694-0.229c-0.209-0.151-0.326-0.38-0.352-0.684l-0.038-0.779
		c-0.431,0.583-0.997,1.036-1.7,1.358C378.837,55.406,378.125,55.568,377.402,55.568z M377.726,54.58c0.569,0,1.137-0.124,1.7-0.371
		c0.564-0.246,1.01-0.585,1.34-1.016c0.088-0.114,0.164-0.238,0.229-0.371c0.063-0.133,0.094-0.256,0.094-0.37v-1.615
		c-0.43-0.164-0.88-0.291-1.348-0.38c-0.469-0.089-0.926-0.133-1.369-0.133c-0.924,0-1.675,0.187-2.251,0.561
		c-0.577,0.373-0.864,0.89-0.864,1.548c0,0.267,0.051,0.526,0.152,0.779c0.101,0.254,0.256,0.481,0.465,0.684
		c0.209,0.203,0.465,0.368,0.77,0.494C376.947,54.517,377.308,54.58,377.726,54.58z"/>
	<path fill="#546E7A" d="M389.315,55.378l5.643-13.49h1.083l5.644,13.49h-1.426l-1.747-4.218h-6.062l-1.729,4.218H389.315z
		 M395.509,43.446l-2.773,6.669h5.472L395.509,43.446z"/>
	<path fill="#546E7A" d="M407.004,55.568c-0.772,0-1.526-0.127-2.261-0.381c-0.735-0.253-1.368-0.62-1.9-1.102l0.589-0.874
		c0.558,0.456,1.124,0.798,1.701,1.026c0.576,0.228,1.193,0.342,1.853,0.342c0.798,0,1.435-0.162,1.909-0.484
		c0.475-0.323,0.713-0.782,0.713-1.378c0-0.278-0.063-0.51-0.19-0.693s-0.313-0.345-0.561-0.484s-0.558-0.263-0.931-0.371
		c-0.374-0.107-0.808-0.218-1.302-0.332c-0.57-0.14-1.064-0.278-1.482-0.418s-0.763-0.298-1.035-0.475
		c-0.272-0.178-0.475-0.396-0.608-0.656c-0.133-0.259-0.199-0.585-0.199-0.979c0-0.493,0.098-0.931,0.295-1.311
		c0.196-0.38,0.462-0.693,0.798-0.94c0.335-0.247,0.729-0.434,1.178-0.561s0.928-0.19,1.435-0.19c0.76,0,1.45,0.124,2.071,0.371
		c0.62,0.247,1.121,0.573,1.501,0.979l-0.627,0.76c-0.368-0.38-0.814-0.665-1.34-0.855c-0.525-0.189-1.073-0.284-1.644-0.284
		c-0.342,0-0.658,0.034-0.95,0.104c-0.291,0.069-0.548,0.18-0.77,0.332s-0.396,0.346-0.522,0.579
		c-0.126,0.235-0.189,0.511-0.189,0.827c0,0.266,0.044,0.481,0.133,0.646c0.089,0.165,0.234,0.308,0.437,0.428
		c0.203,0.12,0.459,0.229,0.77,0.323s0.688,0.193,1.131,0.294c0.634,0.152,1.19,0.305,1.672,0.456
		c0.481,0.152,0.884,0.33,1.207,0.532c0.322,0.203,0.566,0.45,0.731,0.741c0.164,0.291,0.247,0.646,0.247,1.063
		c0,0.912-0.349,1.635-1.045,2.166C409.119,55.302,408.182,55.568,407.004,55.568z"/>
	<path fill="#546E7A" d="M416.732,55.568c-0.772,0-1.526-0.127-2.261-0.381c-0.735-0.253-1.368-0.62-1.9-1.102l0.589-0.874
		c0.558,0.456,1.124,0.798,1.701,1.026c0.576,0.228,1.193,0.342,1.853,0.342c0.798,0,1.435-0.162,1.909-0.484
		c0.475-0.323,0.713-0.782,0.713-1.378c0-0.278-0.063-0.51-0.19-0.693s-0.313-0.345-0.561-0.484s-0.558-0.263-0.931-0.371
		c-0.374-0.107-0.808-0.218-1.302-0.332c-0.57-0.14-1.064-0.278-1.482-0.418s-0.763-0.298-1.035-0.475
		c-0.272-0.178-0.475-0.396-0.608-0.656c-0.133-0.259-0.199-0.585-0.199-0.979c0-0.493,0.098-0.931,0.295-1.311
		c0.196-0.38,0.462-0.693,0.798-0.94c0.335-0.247,0.729-0.434,1.178-0.561s0.928-0.19,1.435-0.19c0.76,0,1.45,0.124,2.071,0.371
		c0.62,0.247,1.121,0.573,1.501,0.979l-0.627,0.76c-0.368-0.38-0.814-0.665-1.34-0.855c-0.525-0.189-1.073-0.284-1.644-0.284
		c-0.342,0-0.658,0.034-0.95,0.104c-0.291,0.069-0.548,0.18-0.77,0.332s-0.396,0.346-0.522,0.579
		c-0.126,0.235-0.189,0.511-0.189,0.827c0,0.266,0.044,0.481,0.133,0.646c0.089,0.165,0.234,0.308,0.437,0.428
		c0.203,0.12,0.459,0.229,0.77,0.323s0.688,0.193,1.131,0.294c0.634,0.152,1.19,0.305,1.672,0.456
		c0.481,0.152,0.884,0.33,1.207,0.532c0.322,0.203,0.566,0.45,0.731,0.741c0.164,0.291,0.247,0.646,0.247,1.063
		c0,0.912-0.349,1.635-1.045,2.166C418.848,55.302,417.91,55.568,416.732,55.568z"/>
	<path fill="#546E7A" d="M427.41,55.568c-0.722,0-1.384-0.137-1.985-0.409s-1.121-0.643-1.559-1.111
		c-0.437-0.469-0.775-1.013-1.017-1.634c-0.24-0.62-0.36-1.273-0.36-1.957c0-0.696,0.123-1.355,0.37-1.977
		c0.247-0.62,0.589-1.165,1.026-1.634c0.437-0.468,0.956-0.842,1.558-1.121c0.602-0.278,1.257-0.418,1.967-0.418
		c0.709,0,1.364,0.14,1.967,0.418c0.601,0.279,1.12,0.653,1.558,1.121c0.437,0.469,0.779,1.014,1.026,1.634
		c0.247,0.621,0.37,1.28,0.37,1.977c0,0.684-0.123,1.337-0.37,1.957c-0.247,0.621-0.59,1.165-1.026,1.634
		c-0.438,0.469-0.957,0.839-1.558,1.111C428.774,55.432,428.119,55.568,427.41,55.568z M423.819,50.476
		c0,0.558,0.092,1.074,0.275,1.549s0.437,0.893,0.76,1.254s0.703,0.644,1.14,0.846c0.438,0.203,0.903,0.304,1.396,0.304
		c0.494,0,0.96-0.104,1.396-0.313c0.438-0.209,0.82-0.494,1.15-0.854c0.329-0.361,0.589-0.782,0.778-1.264
		c0.19-0.481,0.285-1.001,0.285-1.559c0-0.544-0.095-1.061-0.285-1.548c-0.189-0.487-0.449-0.912-0.778-1.273
		c-0.33-0.36-0.71-0.646-1.141-0.854s-0.893-0.313-1.387-0.313s-0.96,0.104-1.396,0.313c-0.438,0.209-0.817,0.497-1.14,0.864
		c-0.323,0.367-0.58,0.795-0.77,1.282C423.914,49.396,423.819,49.919,423.819,50.476z"/>
	<path fill="#546E7A" d="M434.27,50.4c0-0.697,0.12-1.355,0.36-1.977c0.241-0.62,0.58-1.162,1.017-1.624
		c0.438-0.463,0.96-0.827,1.567-1.093c0.608-0.266,1.279-0.399,2.015-0.399c0.938,0,1.754,0.213,2.451,0.637
		c0.696,0.425,1.222,0.998,1.576,1.72l-1.254,0.398c-0.278-0.506-0.665-0.902-1.158-1.188c-0.494-0.284-1.046-0.427-1.653-0.427
		c-0.507,0-0.979,0.102-1.416,0.304c-0.437,0.203-0.816,0.479-1.14,0.826c-0.323,0.349-0.576,0.764-0.76,1.245
		S435.6,49.83,435.6,50.4c0,0.557,0.095,1.083,0.285,1.576c0.189,0.494,0.449,0.922,0.778,1.283c0.329,0.36,0.713,0.646,1.149,0.854
		c0.438,0.209,0.902,0.313,1.396,0.313c0.316,0,0.63-0.044,0.94-0.133s0.599-0.212,0.865-0.37c0.266-0.158,0.494-0.339,0.684-0.542
		c0.19-0.202,0.323-0.418,0.399-0.646l1.254,0.38c-0.14,0.354-0.342,0.681-0.608,0.979c-0.266,0.298-0.579,0.558-0.94,0.778
		c-0.361,0.223-0.76,0.394-1.197,0.514c-0.437,0.12-0.89,0.181-1.358,0.181c-0.722,0-1.387-0.137-1.995-0.409
		c-0.607-0.272-1.134-0.646-1.576-1.121c-0.444-0.475-0.789-1.022-1.036-1.644C434.393,51.774,434.27,51.109,434.27,50.4z"/>
	<path fill="#546E7A" d="M445.84,43.408v-1.9h1.292v1.9H445.84z M445.84,55.378v-9.899h1.292v9.899H445.84z"/>
	<path fill="#546E7A" d="M453.002,55.568c-0.507,0-0.969-0.08-1.387-0.238s-0.776-0.376-1.073-0.655
		c-0.298-0.278-0.529-0.602-0.693-0.969c-0.165-0.367-0.247-0.754-0.247-1.159c0-0.456,0.101-0.871,0.304-1.244
		c0.202-0.374,0.487-0.693,0.854-0.96c0.367-0.266,0.808-0.472,1.321-0.617c0.513-0.146,1.079-0.219,1.7-0.219
		c0.494,0,1,0.045,1.52,0.133c0.52,0.089,0.981,0.216,1.388,0.38v-0.893c0-0.874-0.251-1.567-0.751-2.08
		c-0.5-0.514-1.175-0.77-2.023-0.77c-0.532,0-1.061,0.102-1.586,0.304c-0.526,0.203-1.062,0.494-1.606,0.874l-0.455-0.855
		c0.646-0.43,1.272-0.753,1.881-0.969c0.607-0.215,1.241-0.323,1.899-0.323c1.203,0,2.16,0.349,2.869,1.045
		c0.709,0.697,1.064,1.66,1.064,2.889v4.465c0,0.354,0.151,0.532,0.456,0.532v1.14c-0.102,0.013-0.197,0.021-0.285,0.028
		c-0.089,0.007-0.165,0.01-0.229,0.01c-0.253,0-0.484-0.076-0.693-0.229c-0.209-0.151-0.326-0.38-0.352-0.684l-0.038-0.779
		c-0.431,0.583-0.997,1.036-1.7,1.358C454.437,55.406,453.725,55.568,453.002,55.568z M453.325,54.58c0.57,0,1.137-0.124,1.7-0.371
		c0.563-0.246,1.01-0.585,1.34-1.016c0.089-0.114,0.164-0.238,0.228-0.371s0.096-0.256,0.096-0.37v-1.615
		c-0.431-0.164-0.881-0.291-1.35-0.38s-0.925-0.133-1.368-0.133c-0.924,0-1.675,0.187-2.251,0.561
		c-0.576,0.373-0.864,0.89-0.864,1.548c0,0.267,0.05,0.526,0.151,0.779c0.102,0.254,0.257,0.481,0.466,0.684
		c0.209,0.203,0.466,0.368,0.77,0.494C452.546,54.517,452.907,54.58,453.325,54.58z"/>
	<path fill="#546E7A" d="M465.922,54.903c-0.076,0.038-0.187,0.088-0.332,0.151c-0.146,0.063-0.313,0.127-0.504,0.19
		c-0.189,0.063-0.405,0.12-0.646,0.171c-0.241,0.051-0.494,0.076-0.761,0.076c-0.278,0-0.544-0.038-0.798-0.114
		c-0.253-0.076-0.475-0.193-0.665-0.352c-0.189-0.158-0.342-0.357-0.456-0.599c-0.113-0.24-0.171-0.519-0.171-0.836v-7.087h-1.368
		v-1.026h1.368v-3.344h1.292v3.344h2.28v1.026h-2.28v6.726c0.025,0.368,0.152,0.637,0.38,0.808c0.229,0.171,0.501,0.257,0.817,0.257
		c0.367,0,0.69-0.06,0.969-0.181c0.278-0.12,0.456-0.205,0.532-0.256L465.922,54.903z"/>
	<path fill="#546E7A" d="M467.917,43.408v-1.9h1.292v1.9H467.917z M467.917,55.378v-9.899h1.292v9.899H467.917z"/>
	<path fill="#546E7A" d="M476.733,55.568c-0.722,0-1.384-0.137-1.985-0.409s-1.121-0.643-1.559-1.111
		c-0.437-0.469-0.775-1.013-1.017-1.634c-0.24-0.62-0.36-1.273-0.36-1.957c0-0.696,0.123-1.355,0.37-1.977
		c0.247-0.62,0.589-1.165,1.026-1.634c0.437-0.468,0.956-0.842,1.558-1.121c0.602-0.278,1.257-0.418,1.967-0.418
		c0.709,0,1.364,0.14,1.967,0.418c0.601,0.279,1.12,0.653,1.558,1.121c0.437,0.469,0.779,1.014,1.026,1.634
		c0.247,0.621,0.37,1.28,0.37,1.977c0,0.684-0.123,1.337-0.37,1.957c-0.247,0.621-0.59,1.165-1.026,1.634
		c-0.438,0.469-0.957,0.839-1.558,1.111C478.098,55.432,477.442,55.568,476.733,55.568z M473.143,50.476
		c0,0.558,0.092,1.074,0.275,1.549s0.437,0.893,0.76,1.254s0.703,0.644,1.14,0.846c0.438,0.203,0.903,0.304,1.396,0.304
		c0.494,0,0.96-0.104,1.396-0.313c0.438-0.209,0.82-0.494,1.15-0.854c0.329-0.361,0.589-0.782,0.778-1.264
		c0.19-0.481,0.285-1.001,0.285-1.559c0-0.544-0.095-1.061-0.285-1.548c-0.189-0.487-0.449-0.912-0.778-1.273
		c-0.33-0.36-0.71-0.646-1.141-0.854s-0.893-0.313-1.387-0.313s-0.96,0.104-1.396,0.313c-0.438,0.209-0.817,0.497-1.14,0.864
		c-0.323,0.367-0.58,0.795-0.77,1.282C473.237,49.396,473.143,49.919,473.143,50.476z"/>
	<path fill="#546E7A" d="M492.56,55.378h-1.292v-5.529c0-1.178-0.171-2.032-0.513-2.564c-0.343-0.532-0.874-0.798-1.597-0.798
		c-0.38,0-0.76,0.069-1.14,0.209c-0.38,0.139-0.734,0.335-1.064,0.589c-0.329,0.253-0.617,0.554-0.864,0.902
		s-0.434,0.726-0.561,1.131v6.061h-1.292v-9.899h1.179v2.242c0.202-0.354,0.452-0.681,0.75-0.979c0.298-0.297,0.63-0.554,0.998-0.77
		c0.367-0.215,0.756-0.38,1.168-0.494c0.411-0.113,0.839-0.171,1.282-0.171c0.558,0,1.023,0.102,1.396,0.305
		c0.374,0.202,0.675,0.487,0.903,0.854c0.228,0.367,0.392,0.817,0.493,1.35c0.102,0.531,0.152,1.12,0.152,1.767V55.378z"/>
</g>
<line fill="#B0BEC5" stroke="#B0BEC5" stroke-miterlimit="10" x1="332.5" y1="57" x2="332.5" y2="20"/>
</svg>
